<svg xmlns="http://www.w3.org/2000/svg" viewBox="0 0 800 450" width="800" height="450">
  <!-- Background -->
  <defs>
    <linearGradient id="tecizBg" x1="0%" y1="0%" x2="100%" y2="100%">
      <stop offset="0%" style="stop-color:#0b0b1a"/>
      <stop offset="100%" style="stop-color:#0f1635"/>
    </linearGradient>
    <linearGradient id="accentGrad" x1="0%" y1="0%" x2="100%" y2="0%">
      <stop offset="0%" style="stop-color:#6c63ff"/>
      <stop offset="100%" style="stop-color:#3ecfff"/>
    </linearGradient>
  </defs>
  <rect width="800" height="450" fill="url(#tecizBg)"/>

  <!-- Glow blob -->
  <ellipse cx="400" cy="220" rx="280" ry="180" fill="rgba(108,99,255,0.07)"/>

  <!-- Navbar -->
  <rect width="800" height="54" fill="rgba(255,255,255,0.03)" stroke="rgba(255,255,255,0.06)" stroke-width="0" rx="0"/>
  <!-- Logo text TECIZ -->
  <text x="40" y="35" font-family="Arial,sans-serif" font-size="20" font-weight="800" fill="url(#accentGrad)">TECIZ</text>
  <rect x="110" y="22" width="8" height="8" rx="2" fill="#6c63ff"/>
  <rect x="260" y="19" width="50" height="14" rx="3" fill="rgba(255,255,255,0.07)"/>
  <rect x="324" y="19" width="60" height="14" rx="3" fill="rgba(255,255,255,0.07)"/>
  <rect x="398" y="19" width="70" height="14" rx="3" fill="rgba(255,255,255,0.07)"/>
  <rect x="630" y="15" width="120" height="24" rx="12" fill="url(#accentGrad)"/>
  <text x="690" y="31" text-anchor="middle" font-family="Arial,sans-serif" font-size="11" fill="white" font-weight="600">Get Started →</text>

  <!-- Hero badge -->
  <rect x="220" y="72" width="360" height="26" rx="13" fill="rgba(108,99,255,0.15)" stroke="rgba(108,99,255,0.4)" stroke-width="1"/>
  <text x="400" y="89" text-anchor="middle" font-family="Arial,sans-serif" font-size="11" fill="#a09eff" font-weight="600">✦  EVERYTHING STARTUP  ✦</text>

  <!-- Main headline -->
  <text x="400" y="136" text-anchor="middle" font-family="Arial,sans-serif" font-size="32" font-weight="800" fill="white">Build Your Startup</text>
  <text x="400" y="172" text-anchor="middle" font-family="Arial,sans-serif" font-size="32" font-weight="800" fill="url(#accentGrad)">From Idea to Launch</text>

  <!-- Sub text lines -->
  <rect x="180" y="192" width="440" height="10" rx="3" fill="rgba(255,255,255,0.12)"/>
  <rect x="220" y="210" width="360" height="10" rx="3" fill="rgba(255,255,255,0.08)"/>

  <!-- CTA row -->
  <rect x="240" y="234" width="150" height="38" rx="10" fill="url(#accentGrad)"/>
  <text x="315" y="258" text-anchor="middle" font-family="Arial,sans-serif" font-size="13" fill="white" font-weight="700">Explore →</text>
  <rect x="406" y="234" width="150" height="38" rx="10" fill="rgba(255,255,255,0.05)" stroke="rgba(255,255,255,0.15)" stroke-width="1"/>
  <text x="481" y="258" text-anchor="middle" font-family="Arial,sans-serif" font-size="13" fill="rgba(255,255,255,0.8)">Learn More</text>

  <!-- Feature cards row -->
  <rect x="32" y="296" width="220" height="130" rx="14" fill="rgba(255,255,255,0.04)" stroke="rgba(108,99,255,0.25)" stroke-width="1"/>
  <rect x="50" y="314" width="44" height="44" rx="10" fill="rgba(108,99,255,0.2)"/>
  <text x="72" y="342" text-anchor="middle" font-family="Arial,sans-serif" font-size="22">🚀</text>
  <rect x="50" y="368" width="160" height="11" rx="3" fill="rgba(255,255,255,0.18)"/>
  <rect x="50" y="387" width="120" height="9" rx="3" fill="rgba(255,255,255,0.09)"/>
  <rect x="50" y="402" width="140" height="9" rx="3" fill="rgba(255,255,255,0.06)"/>

  <rect x="274" y="296" width="220" height="130" rx="14" fill="rgba(255,255,255,0.04)" stroke="rgba(62,207,255,0.25)" stroke-width="1"/>
  <rect x="292" y="314" width="44" height="44" rx="10" fill="rgba(62,207,255,0.15)"/>
  <text x="314" y="342" text-anchor="middle" font-family="Arial,sans-serif" font-size="22">💡</text>
  <rect x="292" y="368" width="160" height="11" rx="3" fill="rgba(255,255,255,0.18)"/>
  <rect x="292" y="387" width="110" height="9" rx="3" fill="rgba(255,255,255,0.09)"/>
  <rect x="292" y="402" width="130" height="9" rx="3" fill="rgba(255,255,255,0.06)"/>

  <rect x="516" y="296" width="252" height="130" rx="14" fill="rgba(255,255,255,0.04)" stroke="rgba(108,99,255,0.25)" stroke-width="1"/>
  <rect x="534" y="314" width="44" height="44" rx="10" fill="rgba(108,99,255,0.2)"/>
  <text x="556" y="342" text-anchor="middle" font-family="Arial,sans-serif" font-size="22">🌐</text>
  <rect x="534" y="368" width="180" height="11" rx="3" fill="rgba(255,255,255,0.18)"/>
  <rect x="534" y="387" width="140" height="9" rx="3" fill="rgba(255,255,255,0.09)"/>
  <rect x="534" y="402" width="160" height="9" rx="3" fill="rgba(255,255,255,0.06)"/>
</svg>
